<mxfile host="Electron" modified="2023-08-10T14:00:04.752Z" agent="Mozilla/5.0 (X11; Linux x86_64) AppleWebKit/537.36 (KHTML, like Gecko) draw.io/21.6.5 Chrome/114.0.5735.134 Electron/25.3.2 Safari/537.36" etag="YjZj0mC0-oKD6ilR18nl" version="21.6.5" type="device">
  <diagram name="Page-1" id="msqjQD5EW5xsd1GT00Ly">
    <mxGraphModel dx="750" dy="1168" grid="1" gridSize="10" guides="1" tooltips="1" connect="1" arrows="1" fold="1" page="1" pageScale="1" pageWidth="850" pageHeight="1100" math="0" shadow="0">
      <root>
        <mxCell id="0" />
        <mxCell id="1" parent="0" />
        <mxCell id="bSWF4oOUkGgmCG99WGxA-21" value="" style="rounded=1;whiteSpace=wrap;html=1;fillColor=#E3F1FF;strokeColor=#000000;shadow=1;" parent="1" vertex="1">
          <mxGeometry x="506.73" y="190" width="900.27" height="390" as="geometry" />
        </mxCell>
        <mxCell id="rUWBt7UCw3pCYNw7IizJ-6" value="" style="rounded=1;whiteSpace=wrap;html=1;fillColor=#CCFFE6;strokeColor=#000000;shadow=1;" parent="1" vertex="1">
          <mxGeometry x="935" y="590" width="472" height="360" as="geometry" />
        </mxCell>
        <mxCell id="rUWBt7UCw3pCYNw7IizJ-8" value="&lt;font style=&quot;font-size: 24px;&quot;&gt;&lt;br&gt;&lt;/font&gt;&lt;font style=&quot;font-size: 24px;&quot; data-font-src=&quot;https://fonts.googleapis.com/css?family=Comic+Neue&quot; face=&quot;Comic Neue&quot;&gt;&lt;div style=&quot;&quot;&gt;&lt;span style=&quot;&quot;&gt;&lt;font style=&quot;font-size: 24px;&quot;&gt;&lt;span&gt;{&lt;/span&gt;&lt;/font&gt;&lt;/span&gt;&lt;/div&gt;&lt;div style=&quot;&quot;&gt;&lt;span style=&quot;&quot;&gt;&lt;font style=&quot;font-size: 24px;&quot;&gt;&lt;span&gt;&amp;nbsp; &quot;disease_identified&quot;: {&lt;/span&gt;&lt;/font&gt;&lt;/span&gt;&lt;/div&gt;&lt;div style=&quot;&quot;&gt;&lt;span style=&quot;&quot;&gt;&lt;font style=&quot;font-size: 24px;&quot;&gt;&lt;span&gt;&amp;nbsp; &amp;nbsp; &quot;Babesiosis&quot;: 0,&lt;/span&gt;&lt;/font&gt;&lt;/span&gt;&lt;/div&gt;&lt;div style=&quot;&quot;&gt;&lt;span style=&quot;&quot;&gt;&lt;font style=&quot;font-size: 24px;&quot;&gt;&amp;nbsp; &amp;nbsp; &quot;Graft Versus Host Disease&quot;: 0,&lt;/font&gt;&lt;/span&gt;&lt;/div&gt;&lt;div style=&quot;&quot;&gt;&lt;span style=&quot;&quot;&gt;&lt;font style=&quot;font-size: 24px;&quot;&gt;&amp;nbsp; &amp;nbsp; &lt;b&gt;&quot;Giant Cell Arteritis&quot;: 1&lt;/b&gt;,&lt;/font&gt;&lt;/span&gt;&lt;/div&gt;&lt;div style=&quot;&quot;&gt;&lt;span style=&quot;&quot;&gt;&lt;font style=&quot;font-size: 24px;&quot;&gt;&lt;span&gt;&amp;nbsp; &amp;nbsp; &quot;Cryptogenic Organizing Pneumonia&quot;: 0&lt;/span&gt;&lt;/font&gt;&lt;/span&gt;&lt;/div&gt;&lt;div style=&quot;&quot;&gt;&lt;span style=&quot;&quot;&gt;&lt;font style=&quot;font-size: 24px;&quot;&gt;&lt;span&gt;&amp;nbsp; },&lt;/span&gt;&lt;/font&gt;&lt;/span&gt;&lt;/div&gt;&lt;div style=&quot;&quot;&gt;&lt;span style=&quot;&quot;&gt;&lt;font style=&quot;font-size: 24px;&quot;&gt;&amp;nbsp; &lt;b&gt;&quot;has_disease&quot;: &quot;no&quot;&lt;/b&gt;&lt;/font&gt;&lt;/span&gt;&lt;/div&gt;&lt;div style=&quot;&quot;&gt;&lt;span style=&quot;&quot;&gt;&lt;font style=&quot;font-size: 24px;&quot;&gt;&lt;span&gt;}&lt;/span&gt;&lt;/font&gt;&lt;/span&gt;&lt;/div&gt;&lt;div style=&quot;&quot;&gt;&lt;br&gt;&lt;/div&gt;&lt;/font&gt;" style="text;html=1;strokeColor=none;fillColor=none;align=left;verticalAlign=middle;whiteSpace=wrap;rounded=0;fontStyle=0" parent="1" vertex="1">
          <mxGeometry x="955.44" y="659.33" width="451.56" height="190" as="geometry" />
        </mxCell>
        <mxCell id="y5pRbIxPTlknYOZb2N6y-3" value="" style="rounded=1;whiteSpace=wrap;html=1;fillColor=#FFEDFB;strokeColor=#36393d;shadow=1;" parent="1" vertex="1">
          <mxGeometry x="40" y="190" width="453" height="760" as="geometry" />
        </mxCell>
        <mxCell id="y5pRbIxPTlknYOZb2N6y-4" value="&lt;font data-font-src=&quot;https://fonts.googleapis.com/css?family=Comic+Neue&quot; face=&quot;Comic Neue&quot; style=&quot;&quot;&gt;&lt;b style=&quot;font-size: 20px; border-color: var(--border-color);&quot;&gt;Context:&lt;br style=&quot;border-color: var(--border-color);&quot;&gt;&lt;br style=&quot;border-color: var(--border-color);&quot;&gt;$TASK_DESCRIPTION$&lt;br style=&quot;border-color: var(--border-color);&quot;&gt;&lt;br style=&quot;border-color: var(--border-color);&quot;&gt;&lt;br style=&quot;border-color: var(--border-color);&quot;&gt;Question:&lt;br style=&quot;border-color: var(--border-color);&quot;&gt;&lt;br style=&quot;border-color: var(--border-color);&quot;&gt;&lt;/b&gt;&lt;font style=&quot;font-size: 25px;&quot;&gt;There was some concern about patient having giant cell arteritis upon visiting the clinic, due to elevated CRP &amp;gt;100 and repeat CRP 96.5. Testing administered to determine course of action and differential.&lt;/font&gt;&lt;br style=&quot;border-color: var(--border-color);&quot;&gt;&lt;span style=&quot;font-size: 20px; border-color: var(--border-color);&quot;&gt;&lt;br style=&quot;border-color: var(--border-color);&quot;&gt;&lt;b&gt;Answer:&lt;/b&gt;&lt;br&gt;&lt;div style=&quot;font-weight: bold; border-color: var(--border-color);&quot;&gt;&lt;br&gt;&lt;/div&gt;&lt;div style=&quot;border-color: var(--border-color);&quot;&gt;&lt;b&gt;{{ $EXPLANATION$ }}&lt;/b&gt;&lt;br&gt;&lt;br&gt;&lt;b&gt;{{ $JSON$ }}&lt;/b&gt;&lt;br&gt;&lt;/div&gt;&lt;div style=&quot;font-weight: bold; border-color: var(--border-color);&quot;&gt;&lt;br style=&quot;border-color: var(--border-color);&quot;&gt;&lt;/div&gt;&lt;div style=&quot;font-weight: bold; border-color: var(--border-color);&quot;&gt;Question:&lt;br style=&quot;border-color: var(--border-color);&quot;&gt;&lt;br style=&quot;border-color: var(--border-color);&quot;&gt;$INPUT$&lt;/div&gt;&lt;div style=&quot;font-weight: bold; border-color: var(--border-color);&quot;&gt;&lt;br style=&quot;border-color: var(--border-color);&quot;&gt;&lt;/div&gt;&lt;div style=&quot;font-weight: bold; border-color: var(--border-color);&quot;&gt;Answer:&lt;/div&gt;&lt;/span&gt;&lt;/font&gt;" style="text;html=1;strokeColor=none;fillColor=none;align=left;verticalAlign=middle;whiteSpace=wrap;rounded=0;" parent="1" vertex="1">
          <mxGeometry x="65.23" y="248.00000000000006" width="402.54" height="603.83" as="geometry" />
        </mxCell>
        <mxCell id="y5pRbIxPTlknYOZb2N6y-18" value="&lt;font style=&quot;&quot; data-font-src=&quot;https://fonts.googleapis.com/css?family=Comic+Neue&quot; face=&quot;Comic Neue&quot;&gt;&lt;b style=&quot;font-size: 20px;&quot;&gt;&amp;lt;s&amp;gt;[INST] &amp;lt;&amp;lt;SYS&amp;gt;&amp;gt;&lt;br&gt;$TASK_DESCRIPTION$&lt;br&gt;&amp;lt;&amp;lt;/SYS&amp;gt;&amp;gt;&lt;br&gt;&lt;br&gt;&lt;br&gt;{{ &lt;/b&gt;&lt;font style=&quot;font-size: 25px;&quot;&gt;There was some concern about patient having giant cell arteritis upon visiting the clinic, due to elevated CRP &amp;gt;100 and repeat CRP 96.5. Testing administered to determine course of action and differential.&lt;/font&gt;&lt;b style=&quot;font-size: 20px;&quot;&gt; }} [/INST]&lt;br&gt;&lt;br&gt;&lt;div style=&quot;&quot;&gt;{{ $EXPLANATION }} {{ $JSON$ }}&lt;span style=&quot;background-color: initial;&quot;&gt;&amp;lt;/s&amp;gt;&lt;/span&gt;&lt;span style=&quot;background-color: initial;&quot;&gt;&amp;lt;s&amp;gt;[INST]&amp;nbsp;&lt;/span&gt;&lt;span style=&quot;background-color: initial;&quot;&gt;{{ $INPUT$ }}&amp;nbsp;&lt;/span&gt;&lt;span style=&quot;background-color: initial;&quot;&gt;[/INST]&lt;/span&gt;&lt;/div&gt;&lt;/b&gt;&lt;/font&gt;" style="text;html=1;strokeColor=none;fillColor=none;align=left;verticalAlign=middle;whiteSpace=wrap;rounded=0;" parent="1" vertex="1">
          <mxGeometry x="526.09" y="240" width="861.56" height="243.83" as="geometry" />
        </mxCell>
        <mxCell id="u-sZ5yEqX9RyJvwkbQ8Q-2" value="&lt;font style=&quot;font-size: 20px;&quot; face=&quot;Comic Neue&quot;&gt;Llama 2&lt;/font&gt;" style="rounded=0;whiteSpace=wrap;html=1;strokeWidth=0.5;shadow=1;fontStyle=0" parent="1" vertex="1">
          <mxGeometry x="875.4599999999999" y="520" width="162.82" height="40" as="geometry" />
        </mxCell>
        <mxCell id="u-sZ5yEqX9RyJvwkbQ8Q-8" value="&lt;font style=&quot;font-size: 20px;&quot; face=&quot;Comic Neue&quot;&gt;$JSON$&lt;/font&gt;" style="rounded=0;whiteSpace=wrap;html=1;strokeWidth=0.5;shadow=1;fontStyle=1" parent="1" vertex="1">
          <mxGeometry x="1089.5900000000001" y="895.5" width="162.82" height="40" as="geometry" />
        </mxCell>
        <mxCell id="u-sZ5yEqX9RyJvwkbQ8Q-9" value="&lt;font style=&quot;font-size: 20px;&quot; face=&quot;Comic Neue&quot;&gt;MedAlpaca&lt;/font&gt;" style="rounded=0;whiteSpace=wrap;html=1;strokeWidth=0.5;shadow=1;fontStyle=0" parent="1" vertex="1">
          <mxGeometry x="185.0899999999999" y="895.5" width="162.82" height="40" as="geometry" />
        </mxCell>
        <mxCell id="68NdrM7NPte8uFMJAa29-4" value="" style="rounded=1;whiteSpace=wrap;html=1;fillColor=#CCFFFF;strokeColor=#36393d;shadow=1;" parent="1" vertex="1">
          <mxGeometry x="1417" y="190" width="453" height="760" as="geometry" />
        </mxCell>
        <mxCell id="68NdrM7NPte8uFMJAa29-6" value="&lt;font style=&quot;font-size: 20px;&quot; face=&quot;Comic Neue&quot;&gt;Vicuna&lt;/font&gt;" style="rounded=0;whiteSpace=wrap;html=1;strokeWidth=0.5;shadow=1;fontStyle=0" parent="1" vertex="1">
          <mxGeometry x="1562.0900000000001" y="895.5" width="162.82" height="40" as="geometry" />
        </mxCell>
        <mxCell id="68NdrM7NPte8uFMJAa29-7" value="&lt;font style=&quot;&quot; data-font-src=&quot;https://fonts.googleapis.com/css?family=Comic+Neue&quot; face=&quot;Comic Neue&quot;&gt;&lt;b style=&quot;font-size: 20px;&quot;&gt;$TASK_DESCRIPTION$&lt;br&gt;&lt;br&gt;&lt;br&gt;USER:&lt;br&gt;&lt;br&gt;&lt;/b&gt;&lt;font style=&quot;font-size: 25px;&quot;&gt;There was some concern about patient having giant cell arteritis upon visiting the clinic, due to elevated CRP &amp;gt;100 and repeat CRP 96.5. Testing administered to determine course of action and differential.&lt;/font&gt;&lt;br&gt;&lt;b style=&quot;font-size: 20px;&quot;&gt;&lt;br&gt;ASSISTANT:&lt;br&gt;&lt;br&gt;{{ $EXPLANATION$ }}&lt;br&gt;&lt;br&gt;&lt;div style=&quot;&quot;&gt;{{ $JSON$ }}&lt;/div&gt;&lt;div style=&quot;&quot;&gt;&lt;br&gt;&lt;/div&gt;&lt;div style=&quot;&quot;&gt;USER:&lt;br&gt;&lt;br&gt;$INPUT$&lt;/div&gt;&lt;div style=&quot;&quot;&gt;&lt;br&gt;&lt;/div&gt;&lt;div style=&quot;&quot;&gt;ASSISTANT:&lt;/div&gt;&lt;/b&gt;&lt;/font&gt;" style="text;html=1;strokeColor=none;fillColor=none;align=left;verticalAlign=middle;whiteSpace=wrap;rounded=0;" parent="1" vertex="1">
          <mxGeometry x="1440" y="448.08" width="417.03" height="243.83" as="geometry" />
        </mxCell>
        <mxCell id="68NdrM7NPte8uFMJAa29-8" value="" style="rounded=1;whiteSpace=wrap;html=1;fillColor=#CCFFE6;strokeColor=#000000;shadow=1;" parent="1" vertex="1">
          <mxGeometry x="506.73" y="590" width="415" height="360" as="geometry" />
        </mxCell>
        <mxCell id="68NdrM7NPte8uFMJAa29-10" value="&lt;font style=&quot;font-size: 20px;&quot; face=&quot;Comic Neue&quot;&gt;$EXPLANATION$&lt;/font&gt;" style="rounded=0;whiteSpace=wrap;html=1;strokeWidth=0.5;shadow=1;fontStyle=1" parent="1" vertex="1">
          <mxGeometry x="632.8199999999998" y="895.5" width="162.82" height="40" as="geometry" />
        </mxCell>
        <mxCell id="68NdrM7NPte8uFMJAa29-11" value="&lt;font style=&quot;font-size: 24px;&quot;&gt;&lt;span style=&quot;font-family: &amp;quot;Comic Neue&amp;quot;; background-color: initial;&quot;&gt;Since &quot;giant cell arteritis&quot; was present in the text, we put&amp;nbsp;&lt;/span&gt;&lt;b style=&quot;font-family: &amp;quot;Comic Neue&amp;quot;; background-color: initial;&quot;&gt;&quot;Giant Cell Arteritis&quot;: 1&lt;/b&gt;&lt;span style=&quot;font-family: &amp;quot;Comic Neue&amp;quot;; background-color: initial;&quot;&gt;. However, there was no definite indication that the patient suffers from this rare disease and hence, we put &lt;/span&gt;&lt;b style=&quot;font-family: &amp;quot;Comic Neue&amp;quot;; background-color: initial;&quot;&gt;&quot;has_disease&quot;: &quot;no&quot;&lt;/b&gt;&lt;span style=&quot;font-family: &amp;quot;Comic Neue&amp;quot;; background-color: initial;&quot;&gt;. Finally, we&lt;/span&gt;&lt;span style=&quot;font-family: &amp;quot;Comic Neue&amp;quot;; background-color: initial;&quot;&gt;&amp;nbsp;got the following JSON:&lt;/span&gt;&lt;/font&gt;&lt;font data-font-src=&quot;https://fonts.googleapis.com/css?family=Comic+Neue&quot; face=&quot;Comic Neue&quot; style=&quot;font-size: 20px;&quot;&gt;&lt;span style=&quot;border-color: var(--border-color);&quot;&gt;&lt;br&gt;&lt;/span&gt;&lt;/font&gt;" style="text;html=1;strokeColor=none;fillColor=none;align=left;verticalAlign=middle;whiteSpace=wrap;rounded=0;" parent="1" vertex="1">
          <mxGeometry x="521.35" y="632.4100000000001" width="385" height="243.83" as="geometry" />
        </mxCell>
      </root>
    </mxGraphModel>
  </diagram>
</mxfile>
